PathFileType	4	(X/Y/Z)	s06c0101.trc
DataRate	CameraRate	NumFrames	NumMarkers	Units	OrigDataRate	OrigDataStartFrame	OrigNumFrames
200	200	6	49	mm	200	500	2000
Frame#	Time	racr			lacr			c7			jug			rlel			rdr			llel			ldr			s2			lic			ric			lasi			rasi			rpsi			lpsi			rgt			lgt			rth1			rth2			rth3			rth4			rlfc			rmfc			rsh1			rsh2			rsh3			rsh4			rlmal			rmmal			rcal			rtoe			rmt5			lth1			lth2			lth4			lth3			llfc			lmfc			llmal			lcal			lmt5			lsh1			lsh2			lsh3			lsh4			ltoe			SBIKE			LBIKE			RBIKE			
		X1	Y1	Z1	X2	Y2	Z2	X3	Y3	Z3	X4	Y4	Z4	X5	Y5	Z5	X6	Y6	Z6	X7	Y7	Z7	X8	Y8	Z8	X9	Y9	Z9	X10	Y10	Z10	X11	Y11	Z11	X12	Y12	Z12	X13	Y13	Z13	X14	Y14	Z14	X15	Y15	Z15	X16	Y16	Z16	X17	Y17	Z17	X18	Y18	Z18	X19	Y19	Z19	X20	Y20	Z20	X21	Y21	Z21	X22	Y22	Z22	X23	Y23	Z23	X24	Y24	Z24	X25	Y25	Z25	X26	Y26	Z26	X27	Y27	Z27	X28	Y28	Z28	X29	Y29	Z29	X30	Y30	Z30	X31	Y31	Z31	X32	Y32	Z32	X33	Y33	Z33	X34	Y34	Z34	X35	Y35	Z35	X36	Y36	Z36	X37	Y37	Z37	X38	Y38	Z38	X39	Y39	Z39	X40	Y40	Z40	X41	Y41	Z41	X42	Y42	Z42	X43	Y43	Z43	X44	Y44	Z44	X45	Y45	Z45	X46	Y46	Z46	X47	Y47	Z47	X48	Y48	Z48	X49	Y49	Z49	
500	2.5000	504.322704	1280.797450	-75.512476	509.140025	1278.093220	-367.738905	505.770539	1350.653814	-224.691692	494.275576	1192.739271	-221.056147	519.915489	1048.137791	52.767974	708.907101	930.613186	-47.715547	497.664768	1033.108927	-484.129617	704.142754	925.891275	-419.366433	-41.867123	1156.215123	-218.360176	123.717891	1126.064437	-396.956707	104.469255	1116.088086	-68.326431	135.811512	1074.335641	-363.587510	135.436084	1081.911108	-99.779330	-4.664453	1198.332119	-195.345922	-9.785491	1192.217877	-256.149282	82.821867	1043.593237	-41.280049	87.716666	1072.474545	-432.510234	167.641402	945.400060	-25.064280	237.406688	887.469583	-30.369219	267.871543	805.904923	-38.917636	265.447873	910.150695	-45.012664	312.631253	709.326614	-53.298462	303.681378	684.250499	-162.557059	298.321936	585.725302	-28.559442	308.478777	500.887200	-49.292210	277.830158	419.922061	-53.434865	329.871643	502.929175	-84.007585	259.292715	338.245251	-58.942185	290.569782	346.017916	-154.444114	196.273812	310.347615	-105.962633	471.421029	278.176088	-106.549570	373.365827	264.308056	-37.124090	150.064606	976.314396	-442.696652	228.528208	938.841127	-438.726748	251.414130	965.035366	-425.937574	279.565350	865.487718	-439.434004	323.840236	760.781021	-416.086811	328.635319	745.399661	-301.348073	51.429468	514.666756	-377.791820	-14.864716	540.847134	-327.201622	87.638718	375.804765	-406.734755	254.746221	675.323566	-429.843780	207.180072	608.090967	-401.769861	130.155499	565.742052	-398.668043	227.342493	595.504514	-370.893584	154.103465	316.274014	-352.066457	-204.291399	868.341363	-220.663938	-50.257270	79.708102	-420.273534	-50.153390	79.499359	-22.920912	
501	2.5050	505.809289	1280.999591	-74.925088	510.707654	1279.054626	-367.329086	507.246721	1351.119961	-223.777986	495.783522	1193.037401	-220.805776	520.832340	1048.258127	53.189050	709.465267	930.321120	-47.657943	498.870341	1034.202796	-483.212345	704.747159	926.047179	-418.823326	-40.259299	1157.066478	-219.427074	125.796878	1127.401204	-396.759076	105.882570	1116.859486	-68.216918	137.992432	1075.712383	-362.807914	137.365549	1082.733220	-99.182453	-1.480725	1198.330040	-196.393203	-8.707737	1193.537531	-256.118640	83.908794	1044.226999	-41.423866	90.746559	1074.162245	-432.326312	166.886854	943.968638	-24.478612	235.325921	884.702963	-29.118181	264.467807	802.553435	-37.193007	264.207502	907.044894	-43.039008	308.236702	704.725736	-51.109159	300.053903	680.149838	-160.535135	294.766045	581.312244	-26.792204	305.875340	496.630718	-47.667032	276.068037	415.366052	-52.162321	327.374739	499.089694	-82.002214	258.864358	333.605806	-58.102147	290.329007	341.031522	-153.144680	196.115371	306.824563	-105.590149	469.743643	268.416038	-106.609316	371.648858	256.848785	-36.848853	153.152535	979.388531	-442.104829	232.262470	943.126171	-438.155238	254.620772	969.311464	-424.916574	284.332193	870.289550	-439.650377	329.425330	766.045398	-416.142394	333.989176	750.637886	-301.247617	55.227692	522.108364	-377.942991	-11.132363	548.610648	-327.328568	91.031047	383.178950	-406.525136	260.188210	680.973519	-429.827101	212.036540	614.187333	-401.611864	134.867269	572.412127	-398.641494	231.859627	601.535325	-370.577170	157.068429	323.348509	-352.028042	-204.274886	868.323792	-220.486760	-50.243058	79.758352	-420.287294	-50.141051	79.527389	-22.894524	
502	2.5100	507.216990	1281.221951	-74.353717	512.339975	1280.032054	-366.728140	508.737749	1351.695438	-223.021487	497.234540	1193.433946	-220.576459	521.797105	1048.398740	53.434910	710.160119	929.966963	-47.590417	500.178710	1035.257379	-481.857866	705.426973	926.174749	-418.111013	-38.158196	1158.281836	-221.400809	127.771634	1128.669905	-396.509740	107.187659	1117.536626	-68.238904	140.286866	1077.261864	-362.603851	138.852848	1083.517541	-99.110064	0.195644	1198.766411	-196.513844	-6.911987	1194.365006	-256.369459	84.963149	1044.677095	-41.751010	93.793962	1075.814211	-432.103876	165.979350	942.573671	-23.767766	233.244907	881.937876	-27.695975	260.904353	799.255731	-35.420124	262.837514	903.674184	-41.090509	304.121041	700.493072	-48.826862	296.542393	675.856114	-158.502250	291.026625	577.061304	-25.035957	303.125017	492.508196	-45.846104	273.992365	410.905527	-50.858084	324.832383	495.223479	-80.032253	258.289509	329.089420	-57.075532	290.134960	336.225103	-151.741207	195.155826	304.044502	-104.475760	467.707161	258.950944	-106.627531	369.660696	249.437714	-36.476683	156.437703	982.558391	-441.534315	236.003102	947.342044	-437.620817	257.911794	973.622964	-423.895347	289.061412	875.118250	-439.618488	335.118252	771.357881	-416.114563	339.377479	755.882301	-301.132921	59.251020	529.274421	-378.038966	-7.193941	556.197481	-327.777515	94.632359	390.332436	-406.515056	265.646511	686.477992	-429.660710	216.925239	620.218220	-401.411622	139.543218	578.884332	-398.655604	236.573102	607.604471	-370.201353	160.425674	330.491211	-351.939613	-204.259188	868.383667	-220.339849	-50.212079	79.815972	-420.279648	-50.109233	79.568393	-22.873544	
503	2.5150	508.394474	1281.366778	-74.454547	514.026404	1281.060847	-366.070923	510.219410	1352.384235	-222.226041	498.541227	1193.862359	-220.416934	522.876296	1048.542590	53.533914	710.918366	929.594803	-47.575534	501.524487	1036.272164	-480.280233	706.066560	926.382664	-417.449523	-36.191611	1159.043287	-222.673615	129.698994	1129.892880	-396.384909	108.606695	1118.198545	-68.292541	142.556178	1078.782699	-362.125300	140.446737	1084.245548	-99.029684	2.150993	1199.334683	-196.863387	-8.598297	1195.620937	-255.892068	85.865641	1044.913752	-42.107547	96.739002	1077.534461	-431.771155	164.955756	941.169310	-23.038704	231.501890	879.057352	-26.216754	257.020983	795.830201	-34.002004	260.962786	900.416957	-39.151908	299.338468	696.376268	-46.948929	292.897558	671.577474	-156.509772	287.078531	572.819659	-23.336845	300.085377	488.474579	-44.080327	271.838518	406.630604	-49.433763	322.156196	491.392534	-77.963135	257.431993	324.739530	-56.073289	289.630578	331.750919	-150.041487	193.984402	301.526250	-103.349615	465.314779	249.404361	-106.658268	367.252527	242.163654	-36.045609	159.788220	985.746576	-441.156635	239.835117	951.529023	-437.141685	261.307773	977.903155	-422.950463	293.806622	880.029393	-439.435163	340.732999	776.677076	-415.892949	345.884574	761.894200	-300.903802	63.430449	536.433179	-378.161983	-3.273356	563.432387	-327.926275	98.506159	397.491146	-406.498591	271.121715	692.086539	-429.352298	221.905273	626.190052	-401.102832	144.277809	585.282253	-398.599431	241.287544	613.600543	-369.715338	164.192754	337.596845	-351.773744	-204.235012	868.441755	-220.182667	-50.171587	79.879461	-420.257846	-50.072159	79.577532	-22.851586	
504	2.5200	509.531773	1281.771551	-73.820568	515.720931	1281.992720	-365.401500	511.716664	1353.131693	-221.471137	499.881679	1194.276615	-220.045373	523.969319	1048.782653	53.482137	711.705583	929.170192	-47.533280	502.800483	1037.183967	-478.651092	706.722344	926.583416	-416.813597	-34.516813	1159.168904	-223.355161	131.583201	1131.160309	-396.293427	109.816872	1118.930786	-68.262903	144.816312	1080.311327	-361.636877	140.969822	1085.084027	-99.784621	0.666486	1201.477547	-194.824281	-5.273351	1196.301552	-256.461455	86.689625	1045.238387	-42.408547	99.639145	1079.308188	-431.460975	163.860371	939.665951	-22.244872	229.085701	876.310158	-24.822923	253.022168	792.508616	-32.601256	259.230931	896.936694	-37.444036	294.313177	692.333322	-45.094059	289.173421	667.413177	-154.579629	282.976402	568.754727	-21.589046	296.931281	484.496955	-42.144545	269.312193	402.399981	-47.969386	319.007662	487.742814	-75.804613	256.222903	320.451908	-54.966943	288.724786	327.458931	-148.479495	192.671699	299.017707	-102.108401	462.560845	240.107638	-106.634749	364.663690	235.108673	-35.595963	163.305765	988.936626	-440.887375	243.677101	955.645857	-436.652280	264.792725	982.263286	-422.177689	298.576474	884.870970	-439.127026	346.424575	782.001420	-415.522075	351.236246	767.083904	-300.591425	67.727510	543.289212	-378.389917	0.783964	570.371470	-328.244312	102.787269	404.451906	-406.383293	276.707674	697.578489	-428.975283	226.993442	632.079883	-400.708791	149.090157	591.570190	-398.413834	246.135051	619.557385	-369.168874	168.430342	344.657141	-351.445005	-204.169734	868.648301	-220.223606	-50.132589	79.946797	-420.241084	-50.041088	79.626243	-22.824707	
505	2.5250	510.424137	1282.403978	-73.328357	517.330785	1282.967473	-364.658342	513.219335	1353.995546	-220.745509	501.017784	1194.954600	-219.727163	525.148712	1049.078738	53.288313	712.449300	928.727554	-47.422606	503.869408	1037.947208	-477.057524	707.338118	926.823988	-416.186995	-32.576937	1159.832717	-224.673271	133.530789	1132.279953	-396.244906	111.013655	1119.644323	-68.318199	146.951298	1081.920346	-361.541839	142.555761	1085.924112	-99.561399	2.320422	1201.593667	-195.797659	-1.580227	1196.544213	-257.768606	87.548287	1045.474337	-42.715563	102.388456	1081.068274	-431.124198	162.828745	938.157993	-21.588382	226.831716	873.387007	-23.428416	249.064480	789.192453	-31.419072	257.418611	893.377534	-35.845865	289.249431	688.366137	-43.361017	285.540628	663.002547	-152.660813	278.684041	564.819753	-19.881087	293.570022	480.766432	-40.376444	266.701639	398.353683	-46.419822	315.793117	484.030376	-73.846456	254.858184	316.408013	-53.762258	287.370089	323.024781	-147.071506	191.000332	296.646836	-100.698834	459.360004	230.740546	-106.802053	361.740072	228.161180	-35.160615	166.807283	992.115025	-440.711537	247.530117	959.827853	-436.235710	268.317994	986.605908	-421.627647	303.335249	889.691309	-438.730394	352.140790	787.461432	-415.005447	356.521738	772.172346	-300.067742	72.118552	550.037815	-378.600981	4.888823	577.266570	-328.812943	107.364936	411.395871	-406.301424	282.310927	703.155815	-428.593483	232.188560	637.825448	-400.459756	154.009293	597.752091	-398.235845	250.965166	625.747199	-368.128361	172.832790	351.706792	-351.101006	-204.101703	868.721440	-220.121759	-50.102733	80.046287	-420.192270	-50.055620	79.931930	-22.567331	
